Coordinates
version=1
nRows=14
nColumns=40
inDegrees=yes

Units are S.I. units (second, meters, Newtons, ...)
Angles are in degrees.

endheader
time	pelvis_tilt	pelvis_list	pelvis_rotation	pelvis_tx	pelvis_ty	pelvis_tz	hip_flexion_r	hip_adduction_r	hip_rotation_r	knee_angle_r	knee_angle_r_beta	ankle_angle_r	subtalar_angle_r	mtp_angle_r	hip_flexion_l	hip_adduction_l	hip_rotation_l	knee_angle_l	knee_angle_l_beta	ankle_angle_l	subtalar_angle_l	mtp_angle_l	lumbar_extension	lumbar_bending	lumbar_rotation	arm_flex_r	arm_add_r	arm_rot_r	elbow_flex_r	pro_sup_r	wrist_flex_r	wrist_dev_r	arm_flex_l	arm_add_l	arm_rot_l	elbow_flex_l	pro_sup_l	wrist_flex_l	wrist_dev_l
      0.00000000	     -5.10605772	      0.96130742	      2.97982798	     -1.11748857	      0.93511063	      1.36879097	     31.11942890	    -11.42376282	    -23.42858033	    -14.31846597	     -0.24990437	      0.85187890	      6.32529773	     -0.30071094	     -5.47304130	     -2.88240521	      9.84551588	    -10.70973597	     -0.18692015	      7.39027416	     -5.70408434	     -7.16953345	     -5.09239055	     -1.03060924	     -8.12800995	      0.18260654	    -11.24964339	    -16.92585312	     23.91318920	     89.95437384	      0.00000000	      0.00000000	      8.92989109	     13.69017225	     -4.99878845	     37.93792194	     89.95437384	      0.00000000	      0.00000000
      0.01000000	     -5.24957722	      1.01797011	      3.34356756	     -1.10959924	      0.93386811	      1.37020202	     31.24310520	    -11.35174811	    -23.42692813	    -13.33444021	     -0.23272989	      0.85366140	      6.72241872	     -0.31868314	     -5.83658947	     -2.74586626	      9.55222331	    -10.71179610	     -0.18695611	      7.29634121	     -5.93572638	     -7.62639472	     -4.93676417	     -1.05582902	     -8.34598543	     -0.14382097	    -11.20208836	    -17.27069800	     23.62479672	     89.95437384	      0.00000000	      0.00000000	      8.97794345	     13.66704196	     -5.20538976	     37.94672907	     89.95437384	      0.00000000	      0.00000000
      0.02000000	     -5.39034357	      1.17992798	      3.59683592	     -1.10149156	      0.93245606	      1.37174657	     31.57324794	    -11.43940041	    -23.58030345	    -12.98996088	     -0.22671759	      0.94233118	      6.67677974	     -0.32424578	     -6.19532482	     -2.72068544	      9.66191256	    -10.78890970	     -0.18830200	      7.36742994	     -5.94358731	     -7.70565861	     -4.75148011	     -1.19927905	     -8.49829342	     -0.52857094	    -11.19790205	    -17.36324452	     23.46140659	     89.95437384	      0.00000000	      0.00000000	      8.92982619	     13.63256391	     -5.27720682	     37.88611476	     89.95437384	      0.00000000	      0.00000000
      0.03000000	     -5.12848184	      0.79858657	      4.09574985	     -1.09290139	      0.93172446	      1.37354886	     31.07043331	    -11.01241204	    -24.35868534	    -12.32845573	     -0.21517214	      0.45952661	      7.07778345	     -1.77504824	     -6.86179038	     -1.86367051	     10.15388811	    -10.89905487	     -0.19022439	      5.21051393	     -7.00983983	    -16.85081971	     -5.01490820	     -0.71425564	     -8.70552214	     -0.84904351	    -11.04708341	    -18.54406659	     23.23994506	     89.95437384	      0.00000000	      0.00000000	      9.04406120	     13.56552052	     -5.58174721	     37.71600006	     89.95437384	      0.00000000	      0.00000000
      0.04000000	     -5.19298047	      0.84853444	      4.45396674	     -1.08444514	      0.93038441	      1.37516443	     31.26264189	    -11.07110705	    -24.52533882	    -12.51797472	     -0.21847987	      0.46643372	      6.82900777	     -1.77728897	     -7.29098490	     -1.67201098	      9.96257992	    -10.97219894	     -0.19150100	      5.30054881	     -7.17003557	    -16.75415669	     -4.90921339	     -0.71952644	     -8.94516906	     -1.19152410	    -11.03282821	    -18.76513163	     23.01474101	     89.95437384	      0.00000000	      0.00000000	      9.00998523	     13.48155695	     -5.63822036	     37.47946281	     89.95437384	      0.00000000	      0.00000000
      0.05000000	     -5.26993461	      0.96020879	      4.78189555	     -1.07580720	      0.92903590	      1.37687254	     31.41109631	    -11.16614291	    -24.50093227	    -12.80048477	     -0.22341061	      0.44567712	      6.52259940	     -1.75489340	     -7.66560376	     -1.52326293	      9.85419582	    -11.20261486	     -0.19552251	      5.31825977	     -7.19300321	    -16.59155854	     -4.78815735	     -0.78875806	     -9.17689575	     -1.57205636	    -11.01145594	    -18.93474990	     22.89017346	     89.95437384	      0.00000000	      0.00000000	      8.82103366	     13.44824479	     -5.63574108	     37.35241725	     89.95437384	      0.00000000	      0.00000000
      0.06000000	     -5.37239041	      1.06273211	      4.99396860	     -1.06701469	      0.92756925	      1.37899178	     31.58697620	    -11.16581494	    -24.11827376	    -13.27495338	     -0.23169164	      0.32381574	      6.26828905	     -1.71436513	     -7.88310869	     -1.34723449	      9.69208388	    -11.71580927	     -0.20447945	      5.18694907	     -7.00893960	    -16.27805529	     -4.65277507	     -0.87682389	     -9.28290022	     -2.06722077	    -10.99798740	    -18.93450118	     22.95079119	     89.95437384	      0.00000000	      0.00000000	      8.53834185	     13.45050418	     -5.57496934	     37.33077422	     89.95437384	      0.00000000	      0.00000000
      0.07000000	     -4.76545631	      0.61091856	      5.76303438	     -1.05698517	      0.92745987	      1.38059079	     30.66385925	    -10.87297959	    -25.13339331	    -13.93357933	     -0.24318684	      0.52877331	      5.24536097	     -1.71260955	     -9.08702299	     -0.34725831	      9.29566519	    -11.67880492	     -0.20383360	      4.94211220	     -8.15149723	    -16.56415368	     -5.16908369	     -0.23321394	     -9.86809783	     -2.11550778	    -10.82822478	    -20.46583141	     22.29990548	     89.95437384	      0.00000000	      0.00000000	      8.58460382	     13.12601776	     -5.23491113	     36.41012504	     89.95437384	      0.00000000	      0.00000000
      0.08000000	     -4.67268894	      0.53485330	      6.08069301	     -1.04752780	      0.92636933	      1.38266295	     30.51398587	    -10.73081797	    -24.93078305	    -14.76123947	     -0.25763223	      0.58289989	      4.60273527	     -1.69748054	     -9.56839064	      0.10817605	      9.15607108	    -12.06988742	     -0.21065928	      4.96177139	     -8.45297198	    -16.48893101	     -5.14764155	     -0.06823479	    -10.03634449	     -2.44862648	    -10.85633244	    -20.63173962	     22.00620696	     89.95437384	      0.00000000	      0.00000000	      8.39400740	     13.00714116	     -5.22537212	     35.83328442	     89.95437384	      0.00000000	      0.00000000
      0.09000000	     -4.79550590	      0.66357295	      6.25906511	     -1.03781702	      0.92492211	      1.38512610	     30.48151416	    -10.66798868	    -24.36487927	    -15.36645922	     -0.26819531	      0.42301469	      4.39771722	     -1.65010510	     -9.74454355	      0.30681802	      8.95362691	    -12.71780118	     -0.22196750	      4.76281243	     -8.17726400	    -16.13007356	     -4.90488054	     -0.20310759	    -10.12880173	     -3.00925095	    -10.83863647	    -20.61203786	     22.12446587	     89.95437384	      0.00000000	      0.00000000	      7.88604972	     13.02289275	     -5.16263855	     35.74560014	     89.95437384	      0.00000000	      0.00000000
      0.10000000	     -4.40562371	      0.40894237	      6.76736022	     -1.02757246	      0.92441309	      1.38707274	     29.89210002	    -10.38217386	    -24.29683887	    -16.59600165	     -0.28965487	      0.92929530	      3.25938182	     -1.68723451	    -10.55665049	      1.06322255	      8.52082243	    -13.04770144	     -0.22772535	      4.64131129	     -8.66855246	    -16.12639951	     -5.13691166	      0.21628815	    -10.49557897	     -3.10974412	    -10.87377910	    -21.07440655	     21.44622733	     89.95437384	      0.00000000	      0.00000000	      7.86732318	     12.75335373	     -4.99346794	     34.48894148	     89.95437384	      0.00000000	      0.00000000
      0.11000000	     -4.07404250	      0.19066736	      7.20638988	     -1.01703912	      0.92385239	      1.38948504	     29.14782687	     -9.97597680	    -23.95433713	    -17.37030659	     -0.30316904	      1.11735030	      2.36807623	     -1.61704655	    -11.22669989	      1.81842100	      8.23178139	    -13.57698824	     -0.23696315	      4.22772179	     -9.08400634	    -16.08282729	     -5.30528129	      0.55339538	    -10.77477170	     -3.37575023	    -10.80696198	    -21.71699945	     21.09552729	     89.95437384	      0.00000000	      0.00000000	      7.61464189	     12.54878710	     -4.66455566	     33.68308385	     89.95437384	      0.00000000	      0.00000000
      0.12000000	     -3.57162413	     -0.60813269	      7.50322087	     -1.00619451	      0.92364632	      1.39283838	     28.02208212	     -8.62729095	    -23.72076364	    -17.16922688	     -0.29965954	     -0.58977621	      0.11685458	     -0.58346243	    -11.78835727	      3.55507263	      9.64959909	    -14.51883056	     -0.25340140	      2.98069273	    -11.72623745	    -17.38562634	     -5.59809459	      1.51632413	    -10.81876590	     -3.65656477	    -10.72687632	    -22.89031776	     20.86549037	     89.95437384	      0.00000000	      0.00000000	      7.26537312	     12.35699847	     -4.39543082	     33.00740233	     89.95437384	      0.00000000	      0.00000000
      0.13000000	     -3.43618890	     -0.63541783	      7.62714532	     -0.99600261	      0.92329975	      1.39547022	     27.89930552	     -8.59703490	    -23.80630136	    -17.83334972	     -0.31125067	     -2.33918093	     -0.13011747	     -0.28973814	    -12.18908503	      3.95414672	      9.23944467	    -15.14889710	     -0.26439813	      2.48617543	    -11.41477583	    -17.12636322	     -5.61479994	      1.64175942	    -10.80591078	     -3.89128595	    -10.79729086	    -22.92226169	     20.49650409	     89.95437384	      0.00000000	      0.00000000	      7.02019158	     12.18717156	     -4.23785716	     32.00677462	     89.95437384	      0.00000000	      0.00000000
